/* XPM */
static char *result[] = {
/* columns rows colors chars-per-pixel */
"32 32 4 1 ",
"  c #C94837",
". c #FFB242",
"X c #FFDD50",
"o c #E9AAF9",
/* pixels */
"oooooooooooooooooooooooooooooooo",
"oooooooooooooooooooooooooooooooo",
"oooooooooooooooooooooooooooooooo",
"oooooooooooooooooooooooooooooooo",
"ooooooooooo.......  oooooooooooo",
"ooooooooo.. ........  oooooooooo",
"oooooooo. ...........  ooooooooo",
"ooooooo. ..........XX.  oooooooo",
"oooooo. ..........XXXX.  ooooooo",
"oooooo. ..... . .XXXX..  ooooooo",
"oooooo. ..... . XXXX...  ooooooo",
"ooooo. ....       X.....  oooooo",
"ooooo. .....       .....  oooooo",
"ooooo. .....  XX   .....  oooooo",
"ooooo. .....  XX   .....  oooooo",
"ooooo. ....X      ......  oooooo",
"ooooo. ...XX      ......  oooooo",
"ooooo. ..XXX  ..   .....  oooooo",
"ooooo. .XXXX  ..   .....  oooooo",
"ooooo. .XXX.       .....  oooooo",
"ooooo. .XX.       ......  oooooo",
"oooooo. ..... . .......  ooooooo",
"oooooo. ..... . .......  ooooooo",
"oooooo. ...............  ooooooo",
"ooooooo. .............  oooooooo",
"oooooooo. ...........  ooooooooo",
"ooooooooo.. ........  oooooooooo",
"ooooooooooo.......  oooooooooooo",
"oooooooooooooooooooooooooooooooo",
"oooooooooooooooooooooooooooooooo",
"oooooooooooooooooooooooooooooooo",
"oooooooooooooooooooooooooooooooo"
};
