/* XPM */
static char *result[] = {
/* columns rows colors chars-per-pixel */
"32 32 5 1 ",
"  c #1B4F83",
". c #007E83",
"X c #008EC8",
"o c #00B1E0",
"O c #E9AAF9",
/* pixels */
"OOOOOOOOOOOOOOOOOOOOOOOOOOOOOOOO",
"OOOOOOOOOOOOOOOOOOOOOOOOOOOOOOOO",
"OOOOOOOOOOOOOOOOOOOOOOOOOOOOOOOO",
"OOOOOOOOOOOOXXXXXXXXOOOOOOOOOOOO",
"OOOOOOOOOOXXXXX   XXXXOOOOOOOOOO",
"OOOOOOOOXXXX         XXXOOOOOOOO",
"OOOOOOOXXX   ..        XXOOOOOOO",
"OOOOOOX                  XOOOOOO",
"OOOOO. .. ..    oX  oo  X  OOOOO",
"OOOO.......  oooX    Xoo    OOOO",
"OOOO...... oooX.   .  ..   .OOOO",
"OOO...oo..oX  ... .....   oX.OOO",
"OOO......    . ...ooo....oX..OOO",
"OO.......      ..ooXXo..o.... OO",
"OO .Xo.        .oo..XXoo....  OO",
"OO ...o  Xo o ooo......oo.   oOO",
"OO ..   oo o ............. .o OO",
"OO ..           .........oX.. OO",
"OO  .X.        Xoo..oX oo. .  OO",
"OO  ..o.oo  oo   ooo    ..    OO",
"OOO ..... ooXoo.....    ..   OOO",
"OOO..XX.ooo   ooX...     .o  OOO",
"OOOO...oX.    ...ooX o  oo  OOOO",
"OOOO......    .ooo. o  oo.  OOOO",
"OOOOO.....   XooX..     .  OOOOO",
"OOOOOO...      ...     .  OOOOOO",
"OOOOOOOX.       ..Xo    XOOOOOOO",
"OOOOOOOOXX      Xoo   XXOOOOOOOO",
"OOOOOOOOOOXXX    . XXXOOOOOOOOOO",
"OOOOOOOOOOOOXXXXXXXXOOOOOOOOOOOO",
"OOOOOOOOOOOOOOOOOOOOOOOOOOOOOOOO",
"OOOOOOOOOOOOOOOOOOOOOOOOOOOOOOOO"
};
