/* XPM */
static char *result[] = {
/* columns rows colors chars-per-pixel */
"32 32 9 1 ",
"  c #222843",
". c #394469",
"X c #C94837",
"o c #FF7932",
"O c #EE3A4C",
"+ c #FFB242",
"@ c #5A68B0",
"# c #009BDC",
"$ c #E9AAF9",
/* pixels */
"$$$$$$$$$$$$$$$$$$$$$$$$$$     $",
"$$$$$$$$$$$$$$$$$$$$$$$$$ @ $   ",
"$$$$$$$$$$ $$$ $$$$$$$$$$  $$$  ",
"$$$$$$$$$  $$$  $$$$$$$$$  $$$  ",
"$$$$$$$$ . $$$ . $$$$$$$$   $$ $",
"$$$$$$$$ . ### . $$$$$$$$$   $$$",
"$$$$$$$ ..     .. $$$$$$$$$. $$$",
"$$$$$$$ ..     .. $$$$$$$$$  $$$",
"$$$$$$#           #$$$$$$$$ .$$$",
"$$$$$#             #$$$$$$$..$$$",
"$$$$##             ##$$$$$$. $$$",
"$$$###             ###$$$$$  $$$",
"$+####  O       O  ##++$$$$  $$$",
"++++o##  OO   OO  ##o+++$$$..$$$",
"++++o+##         ##+o+++$$o  o$$",
"++++o+++        #+++o++Xo+oXoo$$",
"XXXXo++++       ++++oXXo++oXXX$$",
"XXoooo++++     ++++oXXoo++oXoo$$",
"XXooooo+++     +++oXXXo++++XXX$$",
"XXXooo$ooo     ooo$$XXX++++..$$$",
"XXXoo$$+o+  .  +o+$$$XX++++  $$$",
"+++++$$oooo   oooo$$$$X+++$..$$$",
"$+++$$+++o+o+o+o+++$$$$$$$$. $$$",
"$+++$$+++o+o+o+o+++$$$$$$$$  $$$",
"$Xoo$++++o+o+o+o++++$$$$$$$..$$$",
"$XXo$++++o+o+o+o++++$$$$$$$. $$$",
"$$Xo$XXXXoooooooXXXX$$$$$$$..$$$",
"$$$$$XXooo$$$$$XXoooo$$$$$$  $$$",
"$$$$$X++oo$$$$$$Xo++o$$$$$$ .$$$",
"$$$$$$++++$$$$$$+++++$$$$$$  $$$",
"$$$$$$+ooo$$$$$$$Xoo$$$$$$$  $$$",
"$$$$$$$++$$$$$$$$$+o+$$$$$$  $$$"
};
