/* XPM */
static char *_1d2504032b7464da0c363e70d300277Q5FGybdoK3G7vO2o[] = {
/* columns rows colors chars-per-pixel */
"32 32 5 1 ",
"  c #7A3D3D",
". c #C94837",
"X c #C9896F",
"o c #5C6B89",
"O c #8D9EB7",
/* pixels */
"XXXXXXXOXXXXXXXXXXXXXXXXOXXXXXXX",
"......XO ..............XO ......",
"......XO ..............XO ......",
"......XO ..............XO ......",
"......XO ..............XO ......",
"......XO ..............XO ......",
"      XO               XO       ",
"oooooooOooooooooooooooooOooooooo",
"XXXXXXXXXXXXOXXXXXXXXXXXXXXXOXXX",
"...........XO .............XO ..",
"...........XO .............XO ..",
"...........XO .............XO ..",
"...........XO .............XO ..",
"...........XO .............XO ..",
"           XO              XO   ",
"ooooooooooooOoooooooooooooooOooo",
"XXOXXXXXXXXXXXXXXXOXXXXXXXXXXXXX",
".XO .............XO ............",
".XO .............XO ............",
".XO .............XO ............",
".XO .............XO ............",
".XO .............XO ............",
" XO               O             ",
"ooOoooooooooooooooOooooooooooooo",
"XXXXXXXXXXOXXXXXXXXXXXXXXXOXXXXX",
".........XO .............XO ....",
".........XO .............XO ....",
".........XO .............XO ....",
".........XO .............XO ....",
".........XO .............XO ....",
"         XO              XO     ",
"ooooooooooOoooooooooooooooOooooo"
};
